<?xml version="1.0" encoding="UTF-8" standalone="no"?>
<!DOCTYPE svg PUBLIC "-//W3C//DTD SVG 1.1//EN" "http://www.w3.org/Graphics/SVG/1.1/DTD/svg11.dtd">
<!-- Created with Vectornator (http://vectornator.io/) -->
<svg height="100%" stroke-miterlimit="10" style="fill-rule:nonzero;clip-rule:evenodd;stroke-linecap:round;stroke-linejoin:round;" version="1.1" viewBox="0 0 1024 1024" width="100%" xml:space="preserve" xmlns="http://www.w3.org/2000/svg" xmlns:vectornator="http://vectornator.io" xmlns:xlink="http://www.w3.org/1999/xlink">
<defs/>
<g id="Untitled" vectornator:layerName="Untitled">
<path d="M107.876 517.683C107.876 294.492 288.809 113.56 512 113.56C735.191 113.56 916.124 294.492 916.124 517.683C916.124 740.874 735.191 921.807 512 921.807C288.809 921.807 107.876 740.874 107.876 517.683Z" fill="#061920" fill-rule="nonzero" opacity="1" stroke="none" vectornator:layerName="Oval 2"/>
<path d="M240.123 590.965C238.87 576.717 241.542 563.176 247.748 549.586C247.895 548.573 247.762 548.195 247.629 547.817C247.391 548.183 247.154 548.549 246.917 548.915C230.045 569.223 218.942 591.762 220.825 618.969C222.262 639.734 234.124 653.482 251.8 662.963C255.604 665.003 259.67 666.616 263.278 668.947C270.184 673.409 272.719 680.126 270.368 686.434C267.858 693.168 260.216 697.652 252.692 696.807C222.24 693.384 187.983 662.186 182.336 632.201C178.483 611.744 183.391 592.528 192.356 574.212C206.816 544.665 227.705 519.847 250.774 496.851C302.001 445.783 360.303 404.385 424.59 371.366C475.343 345.298 528.022 324.119 583.313 309.751C619.965 300.226 657.005 293.049 695.102 293.469C717.15 293.713 739.031 295.45 759.975 303.19C779.532 310.418 795.347 322.214 805.439 340.852C806.985 343.708 808.102 346.795 809.383 350.534C812.498 367.652 809.935 383.405 803.682 398.565C795.018 419.569 781.713 437.697 766.733 454.484C744.193 479.741 718.762 501.904 691.688 522.21C665.444 541.894 637.977 559.634 609.282 575.555C571.958 596.263 533.179 613.663 492.935 627.807C481.675 631.765 470.227 635.187 458.876 638.871C458.888 638.888 458.92 638.879 458.515 638.882C457.285 638.987 456.436 638.998 455.639 639.208C431.91 645.455 407.883 650.017 383.404 652.039C375.668 652.678 367.944 653.542 360.196 653.912C354.389 654.189 349.571 656.422 343.772 656.002C333.908 655.286 323.032 651.873 312.965 650.648C311.833 650.261 310.922 650.15 309.795 650.008C309.578 649.975 309.141 649.954 308.898 649.674C307.445 649.284 306.235 649.174 304.695 649.035C303.924 648.98 303.483 649.953 302.818 649.641C301.402 649.255 300.21 648.156 298.815 648.007C298.612 647.957 298.193 649.933 297.952 649.647C296.483 649.206 295.255 647.051 294.023 646.939C294.018 646.982 288.087 646.447 287.879 646.145C281.174 643.342 281.373 644.001 274.7 641.205C268.976 636.983 262.723 630.373 257.264 626.346C257.353 626.244 258.227 627.005 258.145 626.662C255.746 623.837 252.429 620.354 250.075 617.885C250.038 617.897 250.103 617.939 250.034 617.679C249.669 617.247 249.373 617.076 249.119 616.905C249.163 616.905 249.174 616.819 249.168 616.463C247.709 613.377 246.253 610.406 244.798 607.484C243.682 605.245 242.568 603.035 241.453 600.825C241.069 598.491 240.685 596.157 240.472 593.266C240.47 592.128 240.296 591.546 240.123 590.965M706.575 478.253C706.575 478.253 712.074 473.388 714.914 470.976C718.599 466.841 728.105 457.061 728.775 456.989C743.49 441.875 756.218 425.364 764.402 405.728C775.542 378.999 770.469 353.853 750.457 337.304C739.992 328.649 727.589 323.984 714.509 320.951C694.642 316.344 674.555 317.108 654.451 318.603C651.912 318.791 649.411 319.485 646.137 319.983C640.922 320.253 635.7 320.44 630.492 320.806C602.525 322.771 575.312 328.858 548.413 336.364C521.79 343.792 495.953 353.469 470.844 365.05C468.89 365.951 467.012 367.018 465.099 368.008C466.418 368.828 467.403 368.908 468.317 368.687C491.878 362.993 515.328 356.788 539.013 351.669C568.753 345.241 598.703 339.908 629.406 343.007C647.688 344.852 665.22 348.638 679.124 362.737C681.138 365.771 683.543 368.618 685.1 371.871C692.044 386.379 691.466 401.218 686.258 416.063C680.707 431.884 671.282 445.296 659.98 457.497C646.443 472.111 631.314 484.84 614.467 495.459C609.503 498.587 604.415 497.748 601.36 494.033C598.074 490.036 598.138 483.921 601.72 479.786C603.233 478.041 605.029 476.497 606.869 475.088C611.097 471.848 615.522 468.863 619.704 465.569C635.464 453.157 649.274 439.097 656.23 419.73C663.998 398.102 656.437 380.296 635.66 370.728C618.392 362.775 600.111 362.984 581.747 364.433C575.128 364.955 568.522 365.868 561.976 366.984C558.608 367.558 556.387 370.468 557.418 373.542C558.185 375.83 561.002 377.69 563.298 379.101C564.498 379.839 566.546 379.187 568.21 379.18C578.202 379.136 588.196 379.003 598.185 379.137C600.161 379.164 603.209 379.183 605.686 379.575C604.397 383.28 603.119 390.557 601.157 393.849C596.464 393.583 591.772 393.318 586.203 392.913C584.279 393.073 582.354 393.233 579.844 393.441C580.951 401.028 586.672 410.39 579.728 416.43C569.833 408.651 558.325 397.832 547.57 391.52C504.945 366.507 444.513 375.404 408.908 411.265C384.311 436.038 372.886 466.077 375.506 500.828C376.174 509.698 376.751 517.254 368.13 523.013C362.552 524.601 357.48 530.547 351.052 524.26C355.611 516.418 360.204 508.596 364.714 500.727C366.731 497.209 366.97 493.424 363.78 490.69C360.682 488.036 357.547 490.078 354.762 492.08C354.222 492.468 353.662 492.851 353.202 493.325C345.141 501.629 338.148 510.685 333.926 521.587C324.714 545.377 332.335 566.837 354.527 578.233C360.515 581.308 367.169 583.434 373.76 584.923C399.358 590.706 425.017 588.784 450.627 584.635C501.037 576.468 547.517 557.863 591.172 531.742C620.519 514.183 649.015 495.489 672.23 469.921C678.692 462.804 684.709 455.283 691.722 447.975C695.263 446.249 699.264 446.575 701.086 449.572C702.376 451.693 701.618 455.635 700.672 458.384C699.632 461.405 697.325 463.989 695.576 466.767C694.546 468.403 688.435 475.833 686.164 478.182C680.439 484.112 674.713 490.043 668.372 496.242C664.4 499.507 660.541 502.922 656.435 506.009C639.212 518.957 621.986 531.904 604.612 544.648C597.175 550.104 589.374 555.064 581.739 560.249C581.965 560.635 582.191 561.021 582.416 561.407C589.756 558.028 597.349 555.102 604.382 551.174C618.132 543.493 631.756 535.548 645.07 527.14C653.726 521.673 661.742 515.194 670.719 508.991C672.852 506.697 688.294 494.541 690.184 493.196M313.643 518.112C313.816 517.737 313.989 517.362 314.769 516.687C316.227 514.279 317.35 511.572 319.197 509.514C329.848 497.654 340.775 486.04 351.376 474.135C354.877 470.203 357.988 465.833 360.665 461.301C361.73 459.498 361.136 456.715 361.298 454.378C359.039 455.025 356.777 455.66 354.526 456.333C354.224 456.423 353.973 456.697 353.708 456.897C333.48 472.184 314.713 489.03 298.712 508.784C287.15 523.06 276.791 538.09 271.897 556.114C267.593 571.964 267.923 587.266 277.835 601.397C287.971 615.848 303.166 621.116 319.273 624.87C319.769 624.985 320.425 624.412 321.741 624.257C325.829 625.232 329.868 626.619 334.013 627.114C355.796 629.714 377.487 628.464 399.967 625.233C435.906 623.289 522.209 596.941 531.392 584.847C529.978 585.131 528.856 585.279 527.778 585.585C518.513 588.213 509.303 591.047 499.989 593.486C462.395 603.329 424.385 609.832 385.282 608.083C369.91 607.396 354.794 605.583 340.441 599.871C324.67 593.594 311.124 584.719 305.844 567.197C305.693 566.693 304.972 566.362 304.444 565.227C304.388 564.503 304.332 563.78 304.591 562.853C304.448 562.556 304.305 562.259 303.999 561.044C304.575 553.663 304.416 546.127 305.936 538.946C307.45 531.788 310.648 524.987 313.019 518.02C313.019 518.02 313.019 518.109 313.643 518.112M357.692 431.178C367.76 423.496 377.827 415.814 389.051 407.25C364.505 412.894 261.954 499.015 258.662 516.349C262.164 513.371 265.41 510.855 268.376 508.044C277.801 499.112 287.023 489.962 296.522 481.109C302.475 475.562 308.637 470.214 314.967 465.101C328.926 453.824 343.052 442.752 357.692 431.178M462.75 369.857C463.025 369.75 463.3 369.643 463.575 369.536C463.202 369.519 462.828 369.501 462.75 369.857M534.15 584.211C533.964 584.337 533.779 584.462 533.593 584.588C533.855 584.562 534.118 584.537 534.15 584.211Z" fill="#f9fcfc" fill-rule="nonzero" opacity="1" stroke="none" vectornator:layerName="path"/>
<path d="M778.837 581.039C767.091 579.491 758.564 586.072 750.075 592.576C746.786 595.096 743.408 597.708 740.834 600.895C738.419 603.885 735.907 607.535 735.402 611.167C734.493 617.709 730.872 621.909 725.859 625.007C707.066 636.625 688.434 648.567 669.108 659.24C650.19 669.687 630.891 679.647 611.046 688.159C587.866 698.101 564.046 706.614 540.262 715.066C514.074 724.372 486.809 729.599 459.542 734.622C453.842 735.672 448.063 736.423 442.287 736.897C432.72 737.682 424.679 731.209 423.098 721.82C421.754 713.835 427.785 705.439 436.742 703.004C457.573 697.342 478.469 691.91 499.248 686.063C523.921 679.121 547.673 669.65 571.153 659.422C604.471 644.91 636.466 627.857 667.505 609.052C693.813 593.114 719.066 575.592 743.161 556.398C767.174 537.27 789.189 516.027 810.404 493.929C818.453 485.544 825.698 476.392 833.656 467.914C839.806 461.362 848.402 460.595 856.933 465.087C863.601 468.598 867.985 476.703 865.748 484.626C860.202 504.271 854.543 523.935 847.658 543.136C842.229 558.273 829.97 568.623 818.127 578.912C815.496 581.198 812.84 583.467 810.048 585.545C809.518 585.94 808.293 585.401 806.93 584.818C804.986 576.53 800.092 571.577 793.061 571.319C786.07 571.063 781.694 575.039 778.837 581.039Z" fill="#324d5c" fill-rule="nonzero" opacity="1" stroke="none" vectornator:layerName="path"/>
<path d="M458.865 638.854C470.227 635.187 481.675 631.765 492.935 627.807C533.179 613.663 571.958 596.263 609.282 575.555C637.977 559.634 665.444 541.894 691.688 522.21C718.762 501.904 744.193 479.741 766.733 454.484C781.713 437.697 795.018 419.569 803.682 398.565C809.935 383.405 812.498 367.652 809.52 350.881C823.507 372.889 825.161 396.492 815.745 420.776C807.625 441.719 794.113 459.323 779.302 475.887C743.708 515.695 701.703 547.725 656.71 576.057C618.027 600.415 577.504 621.152 535.026 638.099C496.75 653.37 457.56 665.353 416.417 671.596C415.999 666.066 419.25 666.174 423.152 666.057C427.775 665.92 432.459 665.067 436.927 663.836C438.675 663.354 439.908 661.002 441.375 659.501C441.097 658.98 440.818 658.459 440.54 657.938C435.224 657.938 429.909 657.938 424.593 657.938C424.525 657.504 424.457 657.071 424.388 656.637C429.583 654.4 434.827 652.268 439.954 649.883C442.862 648.53 449.151 648.504 449.748 650.292C451.244 654.775 446.984 654.71 444.824 656.311C444.604 656.475 444.559 656.875 444.048 658.047C446.968 658.43 449.616 658.875 452.282 659.104C456.136 659.437 460.044 660.007 463.843 659.625C465.036 659.505 466.743 656.701 466.855 655.034C467.234 649.418 466.785 643.657 474.518 641.451C472.891 639.678 471.725 638.409 471.545 638.213C466.5 638.468 462.682 638.661 458.865 638.854Z" fill="#8fbcce" fill-rule="nonzero" opacity="1" stroke="none" vectornator:layerName="path"/>
<path d="M535.259 275.312C539.656 273.639 543.719 272.196 547.722 270.602C551.428 269.126 553.061 265.766 551.668 262.538C550.533 259.907 547.67 257.239 544.973 256.284C542.251 255.32 538.746 256.195 535.662 256.721C531.986 257.35 528.671 257.188 527.66 253.04C526.723 249.198 529.541 247.063 532.741 246.262C546.904 242.716 561.057 239.049 575.381 236.295C578.894 235.619 583.673 237.323 586.747 239.51C592.031 243.271 592.258 247.855 588.982 253.545C586.263 258.269 587.103 260.469 592.134 261.802C599.265 263.691 601.762 266.028 602.066 271.099C602.422 277.025 599.844 280.633 592.789 282.934C578.099 287.725 563.246 292.024 548.611 296.973C529.877 303.307 511.13 309.663 492.691 316.793C475.665 323.376 458.753 330.403 442.309 338.311C423.76 347.233 405.678 357.154 387.613 367.044C378.304 372.14 369.482 378.126 360.423 383.682C354.748 387.163 349.144 386.032 345.111 380.653C341.893 376.36 342.277 370.158 347.183 366.456C355.789 359.962 364.6 353.596 373.937 348.243C392.825 337.415 411.773 326.585 431.332 317.059C461.529 302.352 492.497 289.323 524.509 278.95C527.983 277.824 531.437 276.636 535.259 275.312Z" fill="#344e5c" fill-rule="nonzero" opacity="1" stroke="none" vectornator:layerName="path"/>
<path d="M279.349 407.815C282.676 410.755 279.096 412.236 277.744 413.513C271.952 418.983 265.618 423.89 259.94 429.468C249.513 439.713 238.826 449.784 229.314 460.845C216.343 475.93 204.396 491.894 191.958 507.439C187.352 513.195 180.547 515.066 174.736 512.372C168.677 509.563 165.159 502.275 167.409 494.591C171.222 481.566 175.06 468.464 180.201 455.932C189.314 433.715 201.318 412.962 216.123 394.022C225.49 382.039 234.219 369.367 246.889 360.336C253.429 355.675 260.578 354.665 265.369 357.94C271.993 362.47 274.106 368.493 271.361 377.084C269.648 382.444 269.482 387.463 271.799 393.186C269.997 396.29 267.16 398.699 267.106 401.17C267.056 403.445 269.54 406.587 271.761 407.853C273.664 408.938 276.773 407.909 279.349 407.815Z" fill="#334d5c" fill-rule="nonzero" opacity="1" stroke="none" vectornator:layerName="path"/>
<path d="M393.981 263.003C415.822 254.423 437.227 245.758 458.847 237.665C469.887 233.533 483.58 244.219 482.225 255.01C481.553 260.353 479.059 263.784 474.529 265.695C462.75 270.665 450.704 275.017 439.021 280.194C419.439 288.873 400.05 297.988 380.592 306.947C374.318 309.835 368.519 313.992 360.989 313.116C353.763 312.275 347.96 309.133 344.054 303.041C339.811 296.426 341.036 289.944 348.199 286.032C361.763 278.623 375.732 271.952 389.541 264.991C390.875 264.319 392.269 263.764 393.981 263.003Z" fill="#344e5c" fill-rule="nonzero" opacity="1" stroke="none" vectornator:layerName="path"/>
<path d="M471.545 635.213C471.725 635.409 472.891 639.678 474.518 641.451C466.785 643.657 467.234 649.418 466.855 655.034C466.743 656.701 465.036 659.505 463.843 659.625C460.044 660.007 446.968 658.43 444.048 658.047C444.559 656.875 438.675 663.354 436.927 663.836C432.459 665.067 427.775 665.92 423.152 666.057C419.25 666.174 415.999 666.066 416.001 671.556C415.589 672.081 415.178 672.211 414.3 671.994C412.694 670.366 411.555 669.086 410.007 667.345C410.007 669.896 410.007 671.416 410.007 672.936C409.576 673.03 409.145 673.125 408.121 672.865C401.78 672.672 396.013 672.62 390.294 673.117C388.463 673.277 386.758 674.887 384.996 675.834C356.487 678.23 328.221 677.585 300.583 669.081C284.302 664.071 250.034 641.205 241.298 611.039C241.298 601.233 257.323 626.797 258.662 626.953C260.212 628.953 279.833 642.794 282.294 643.663C291.61 646.953 296.087 647.517 303.042 648.927C303.483 648.953 315.295 651.002 332.197 652.982C343.038 654.252 368.803 652.536 368.803 652.536C368.803 652.536 383.072 651.002 397.816 650.002C398.792 649.935 436.1 643.956 442.185 642.512C444.117 642.053 466.5 635.468 471.545 635.213Z" fill="#90bfd2" fill-rule="nonzero" opacity="1" stroke="none" vectornator:layerName="path"/>
<path d="M308.196 345.391C305.665 352.75 303.303 359.772 300.706 367.495C298.791 361.234 296.929 355.577 295.338 349.845C292.806 340.717 286.839 335.046 278.007 332.207C272.572 330.46 267.08 328.891 260.212 326.819C266.517 324.753 271.295 322.984 276.186 321.628C286.804 318.683 293.161 311.764 295.948 301.272C297.336 296.046 298.824 290.847 301.264 285.595C302.33 289.496 303.667 293.347 304.415 297.308C307.145 311.781 316.115 319.812 330.105 323.022C333.693 323.845 337.154 325.222 341.812 326.708C328.909 331.405 315.028 331.852 308.196 345.391Z" fill="#f7f9f9" fill-rule="nonzero" opacity="1" stroke="none" vectornator:layerName="path"/>
<path d="M513.629 237.23C512.102 241.674 510.675 245.914 509.107 250.577C507.951 246.797 506.826 243.381 505.865 239.919C504.336 234.408 500.733 230.983 495.4 229.268C492.118 228.213 488.802 227.266 484.654 226.015C488.462 224.768 491.347 223.699 494.301 222.88C500.712 221.102 504.551 216.924 506.234 210.588C507.072 207.433 507.97 204.293 509.444 201.121C510.088 203.477 510.895 205.802 511.346 208.195C512.995 216.935 518.412 221.784 526.86 223.722C529.026 224.219 531.116 225.051 533.929 225.948C526.137 228.784 517.755 229.054 513.629 237.23Z" fill="#f7f9f9" fill-rule="nonzero" opacity="1" stroke="none" vectornator:layerName="path 2"/>
<path d="M778.837 581.484C781.694 575.039 786.07 571.063 793.061 571.319C800.092 571.577 804.986 576.53 806.677 584.65C805.39 594.281 799.419 599.596 791.287 598.834C782.685 598.028 778.194 591.93 778.837 581.484Z" fill="#f7f9f9" fill-rule="nonzero" opacity="1" stroke="none" vectornator:layerName="path"/>
<path d="M738.125 656.969C746.678 653.712 746.678 653.712 754.071 641.205C756.134 650.988 762.113 656.1 772.053 657.82C767.049 660.475 762.679 661.817 759.729 664.642C756.925 667.327 755.605 671.562 753.25 675.805C751.477 665.837 745.293 660.796 735.463 658.939C736.667 657.973 737.22 657.529 738.125 656.969Z" fill="#f1f5f5" fill-rule="nonzero" opacity="1" stroke="none" vectornator:layerName="path"/>
<path d="M636.095 249.042C644.649 245.785 644.649 245.785 652.042 233.277C654.104 243.06 660.083 248.173 670.023 249.893C665.019 252.548 660.649 253.89 657.699 256.714C654.895 259.399 653.575 263.635 651.22 267.877C649.447 257.91 643.264 252.869 633.434 251.011C634.637 250.046 635.19 249.602 636.095 249.042Z" fill="#f1f5f5" fill-rule="nonzero" opacity="1" stroke="none" vectornator:layerName="path 1"/>
<path d="M389.151 227.245C383.528 223.501 381.935 219.489 383.839 214.592C385.577 210.123 389.389 207.782 393.965 208.371C398.636 208.973 402.036 212.425 402.802 217.119C403.711 222.689 398.371 230.419 389.151 227.245Z" fill="#f3f6f7" fill-rule="nonzero" opacity="1" stroke="none" vectornator:layerName="path"/>
<path d="M345.216 246.472C348.14 242.992 351.692 241.588 354.993 244.251C357.086 245.939 359.162 249.417 358.869 251.799C358.574 254.192 355.695 257.203 353.267 258.102C351.323 258.821 347.883 257.372 345.957 255.827C343.062 253.505 343.286 250.039 345.216 246.472Z" fill="#f0f4f6" fill-rule="nonzero" opacity="1" stroke="none" vectornator:layerName="path"/>
<path d="M279.618 407.514C276.773 407.909 273.664 408.938 271.761 407.853C269.54 406.587 267.056 403.445 267.106 401.17C267.16 398.699 269.997 396.29 271.834 393.593C275.962 392.786 279.654 393.671 281.328 397.326C282.804 400.551 282.849 404.282 279.618 407.514Z" fill="#f0f4f6" fill-rule="nonzero" opacity="1" stroke="none" vectornator:layerName="path"/>
<path d="M646.811 714.774C644.217 715.449 641.696 716.653 639.635 716.112C635.346 714.985 633.421 710.209 635.14 706.611C636.726 703.289 641.771 701.711 645.054 703.51C649.159 705.76 649.914 709.834 646.811 714.774Z" fill="#f0f4f6" fill-rule="nonzero" opacity="1" stroke="none" vectornator:layerName="path"/>
<path d="M249.168 616.463C248.263 618.105 240.034 608.8 242.298 613.131C241.973 612.022 240.856 603.242 240.034 599.605C238.827 594.256 241.727 600.287 241.298 598.605C240.367 594.949 246.591 611.013 249.168 616.463Z" fill="#93bac7" fill-rule="nonzero" opacity="1" stroke="none" vectornator:layerName="path"/>
<path d="M385.433 675.899C386.758 674.887 388.463 673.277 390.294 673.117C396.013 672.62 401.78 672.672 407.792 672.819C400.66 674.073 393.265 675.019 385.433 675.899Z" fill="#8fbcce" fill-rule="nonzero" opacity="1" stroke="none" vectornator:layerName="path"/>
<path d="M246.849 623.422C248.908 624.422 253.177 624.411 250.076 628.953C248.804 627.319 247.848 625.542 246.849 623.422Z" fill="#93bac7" fill-rule="nonzero" opacity="1" stroke="none" vectornator:layerName="path"/>
<path d="M410.36 672.996C410.007 671.416 410.007 669.896 410.007 667.345C411.555 669.086 412.694 670.366 413.975 671.982C412.983 672.564 411.848 672.811 410.36 672.996Z" fill="#8fbcce" fill-rule="nonzero" opacity="1" stroke="none" vectornator:layerName="path"/>
<path d="M240.034 591.316C240.296 591.546 240.47 592.128 240.467 592.879C240.175 592.589 240.061 592.128 240.034 591.316Z" fill="#93bac7" fill-rule="nonzero" opacity="1" stroke="none" vectornator:layerName="path"/>
<path d="M691.326 447.962C694.121 441.569 697.655 435.336 700.423 428.779C704.955 418.043 707.277 406.836 704.973 395.142C701.994 380.023 693.827 368.759 679.421 362.031C665.22 348.638 647.688 344.852 629.406 343.007C598.703 339.908 568.753 345.241 539.013 351.669C515.328 356.788 491.878 362.993 468.317 368.687C467.403 368.908 466.418 368.828 465.099 368.008C467.012 367.018 468.89 365.951 470.844 365.05C495.953 353.469 521.79 343.792 548.413 336.364C575.312 328.858 602.525 322.771 630.492 320.806C635.7 320.44 640.922 320.253 646.757 320.323C667.076 321.688 686.26 324.937 704.523 332.87C731.145 344.434 746.276 367.256 746.274 396.283C746.272 416.695 728.587 455.541 728.105 457.061L727.738 456.741C727.738 456.741 720.626 466.759 716.294 470.843C715.342 470.996 706.937 478.452 700.643 484.151C694.593 489.63 670.515 510.014 668.023 512C666.443 510.45 660.483 511.924 659.809 511.238C660.554 507.966 667.308 498.953 667.987 495.973C673.713 490.043 678.331 485.43 684.624 479.494C686.453 479.549 694.546 468.403 695.576 466.767C697.325 463.989 699.632 461.405 700.672 458.384C701.618 455.635 702.376 451.693 701.086 449.572C699.264 446.575 695.263 446.249 691.326 447.962" fill="#8fbdd0" fill-rule="nonzero" opacity="1" stroke="none" vectornator:layerName="path"/>
<path d="M321.006 624.16C320.425 624.412 319.769 624.985 319.273 624.87C303.166 621.116 287.971 615.848 277.835 601.397C267.923 587.266 267.593 571.964 271.897 556.114C276.791 538.09 287.15 523.06 298.712 508.784C314.713 489.03 333.48 472.184 353.708 456.897C353.973 456.697 354.224 456.423 354.526 456.333C356.777 455.66 359.039 455.025 361.298 454.378C361.136 456.715 361.73 459.498 360.665 461.301C357.988 465.833 354.877 470.203 351.376 474.135C340.775 486.04 329.848 497.654 319.197 509.514C317.35 511.572 316.227 514.279 314.125 516.826C313.327 517.347 313.173 517.728 313.019 518.109C313.019 518.109 313.019 518.02 312.712 517.963C302.815 527.596 294.944 538.488 290.31 551.381C283.748 569.636 284.543 587.243 295.708 603.795C302.072 613.229 311.271 618.99 321.006 624.16Z" fill="#92becf" fill-rule="nonzero" opacity="1" stroke="none" vectornator:layerName="path"/>
<path d="M304.516 565.95C304.972 566.362 305.693 566.693 305.844 567.197C311.124 584.719 324.67 593.594 340.441 599.871C354.794 605.583 369.91 607.396 385.282 608.083C424.385 609.832 462.395 603.329 499.989 593.486C509.303 591.047 518.513 588.213 527.778 585.585C528.856 585.279 529.978 585.131 531.392 584.847C522.209 596.941 435.906 623.289 399.267 624.817C393.777 623.93 388.974 623.57 384.202 622.972C365.778 620.661 347.731 616.759 331.667 607.004C316.323 597.686 305.747 584.802 304.516 565.95Z" fill="#91becf" fill-rule="nonzero" opacity="1" stroke="none" vectornator:layerName="path"/>
<path d="M602.099 379.663C610.666 378.882 619.728 383.437 626.412 387.955C637.537 395.476 641.057 407.926 636.251 421.499C632.856 431.089 627.061 439.132 620.104 446.393C618.866 447.685 617.307 449.159 615.686 449.478C613.208 449.965 609.973 450.437 608.092 449.262C604.962 447.309 605.49 443.836 607.437 440.877C609.991 436.996 612.872 433.31 615.179 429.292C623.96 414 616.833 399.725 600.099 393.317C600.929 389.857 600.672 380.294 602.099 379.663Z" fill="#dceef5" fill-rule="nonzero" opacity="1" stroke="none" vectornator:layerName="path"/>
<path d="M369.508 522C367.359 530.118 366.971 538.916 372.915 545.986C378.34 552.436 385.839 554.26 393.552 555.956C396.169 556.531 399.08 557.609 400.937 559.407C404.566 562.924 402.614 568.544 397.704 569.907C383.479 573.855 358.234 561.697 352.533 548.082C349.461 540.746 349.302 531.242 351.862 523.33C358.48 528.547 363.552 523.601 369.508 522Z" fill="#e1f1f8" fill-rule="nonzero" opacity="1" stroke="none" vectornator:layerName="path"/>
<path d="M357.401 431.388C343.052 442.752 328.926 453.824 314.967 465.101C308.637 470.214 302.475 475.562 296.522 481.109C287.023 489.962 277.801 499.112 268.376 508.044C265.41 510.855 262.164 513.371 258.662 516.349C261.954 499.015 364.505 412.894 389.051 407.25C377.827 415.814 367.76 423.496 357.401 431.388Z" fill="#9acad0" fill-rule="nonzero" opacity="1" stroke="none" vectornator:layerName="path"/>
<path d="M668.68 496.108C668.308 498.953 667.63 501.933 666.884 505.206C667.558 505.891 669.78 508.133 671.023 509.772C662.742 516.194 653.726 521.673 645.07 527.14C631.756 535.548 618.132 543.493 604.382 551.174C597.349 555.102 589.756 558.028 582.416 561.407C582.191 561.021 581.965 560.635 581.739 560.249C589.374 555.064 597.175 550.104 604.612 544.648C621.986 531.904 639.212 518.957 656.435 506.009C660.541 502.922 664.4 499.507 668.68 496.108Z" fill="#96c3d2" fill-rule="nonzero" opacity="1" stroke="none" vectornator:layerName="path"/>
<path d="M586.641 392.983C589.212 394.514 591.487 395.807 593.455 397.464C606.339 408.316 606.008 424.479 592.901 435.852C587.987 429.126 583.065 422.388 578.038 415.323C584.328 408.596 580.951 401.028 579.844 393.441C582.354 393.233 584.279 393.073 586.641 392.983Z" fill="#8fbdce" fill-rule="nonzero" opacity="1" stroke="none" vectornator:layerName="path"/>
<path d="M257.145 625.662C252.11 626.221 250.831 622.681 250.076 618.268C252.429 620.354 254.746 622.837 257.145 625.662Z" fill="#93bac7" fill-rule="nonzero" opacity="1" stroke="none" vectornator:layerName="path"/>
<path d="M302.818 648.641C301.822 648.805 300.602 648.682 299.2 648.308C300.21 648.156 301.402 648.255 302.818 648.641Z" fill="#93bac7" fill-rule="nonzero" opacity="1" stroke="none" vectornator:layerName="path"/>
<path d="M308.898 649.674C307.932 649.835 306.723 649.715 305.27 649.33C306.235 649.174 307.445 649.284 308.898 649.674Z" fill="#93bac7" fill-rule="nonzero" opacity="1" stroke="none" vectornator:layerName="path"/>
<path d="M297.952 647.647C296.952 647.789 295.711 647.646 294.249 647.2C295.255 647.051 296.483 647.206 297.952 647.647Z" fill="#93bac7" fill-rule="nonzero" opacity="1" stroke="none" vectornator:layerName="path"/>
<path d="M312.965 650.648C312.698 650.949 312.211 650.972 311.36 651.002C310.681 650.908 310.424 650.728 310.118 650.253C310.922 650.15 311.833 650.261 312.965 650.648Z" fill="#93bac7" fill-rule="nonzero" opacity="1" stroke="none" vectornator:layerName="path"/>
<path d="M684.25 498.056C684.299 497.703 684.581 497.278 684.998 497.065C684.995 497.586 684.779 497.821 684.25 498.056Z" fill="#96c3d2" fill-rule="nonzero" opacity="1" stroke="none" vectornator:layerName="path"/>
<path d="M462.602 369.671C462.828 369.501 463.202 369.519 463.575 369.536C463.3 369.643 463.025 369.75 462.602 369.671Z" fill="#8fbdd0" fill-rule="nonzero" opacity="1" stroke="none" vectornator:layerName="path"/>
<path d="M726.298 458.456C726.458 457.866 726.947 457.161 727.755 456.774C727.592 457.509 727.109 457.925 726.298 458.456Z" fill="#061920" fill-rule="nonzero" opacity="1" stroke="none" vectornator:layerName="path"/>
<path d="M534.266 584.361C534.118 584.537 533.855 584.562 533.593 584.588C533.779 584.462 533.964 584.337 534.266 584.361Z" fill="#91becf" fill-rule="nonzero" opacity="1" stroke="none" vectornator:layerName="path"/>
<path d="M706.339 478.196C706.353 478.004 706.604 477.868 706.944 477.914C707.034 478.095 706.575 478.253 706.339 478.196Z" fill="#8fbdd0" fill-rule="nonzero" opacity="1" stroke="none" vectornator:layerName="path"/>
<path d="M313.331 518.111C313.173 517.728 313.327 517.347 313.821 516.976C313.989 517.362 313.816 517.737 313.331 518.111Z" fill="#051921" fill-rule="nonzero" opacity="1" stroke="none" vectornator:layerName="path"/>
<path d="M706.223 478.819C706.027 478.78 705.885 478.498 705.942 478.157C706.141 478.097 706.278 478.576 706.223 478.819Z" fill="#8fbdd0" fill-rule="nonzero" opacity="1" stroke="none" vectornator:layerName="path"/>
<path d="M250.034 617.679C249.821 617.756 249.539 617.573 249.166 617.147C249.373 617.076 249.669 617.247 250.034 617.679Z" fill="#93bac7" fill-rule="nonzero" opacity="1" stroke="none" vectornator:layerName="path"/>
<path d="M304.434 562.954C304.184 562.881 304.092 562.707 304.08 562.248C304.305 562.259 304.448 562.556 304.434 562.954Z" fill="#91becf" fill-rule="nonzero" opacity="1" stroke="none" vectornator:layerName="path"/>
<path d="M247.086 549.067C247.154 548.549 247.391 548.183 247.629 547.817C247.762 548.195 247.895 548.573 247.818 549.226C247.608 549.501 247.254 549.218 247.086 549.067Z" fill="#02161d" fill-rule="nonzero" opacity="1" stroke="none" vectornator:layerName="path"/>
<path d="M276.04 641.361C277.3 641.779 278.602 642.552 279.952 643.663C278.693 643.239 277.387 642.478 276.04 641.361Z" fill="#8fbcce" fill-rule="nonzero" opacity="1" stroke="none" vectornator:layerName="path"/>
<path d="M540.883 531.853C509.169 551.536 474.945 561.995 437.401 558.703C432.561 558.279 427.927 553.826 423.523 550.77C420.993 549.014 419.118 546.315 416.935 543.321C414.569 539.78 412.214 536.958 409.86 534.137C409.86 534.137 409.92 534.131 409.943 533.79C409.973 533.015 409.981 532.582 410.377 532.146C428.543 537.526 446.516 537.651 464.235 532.608C487.78 525.907 507.3 512.653 521.469 492.63C537.534 469.928 542.547 445.034 533.17 418.122C531.871 414.395 530.405 410.727 529.016 407.032C529.67 407.064 530.446 406.876 530.96 407.16C545.469 415.167 558.804 424.445 566.172 440.859C568.224 451.166 569.138 460.649 568.257 470.555C566.716 487.881 560.847 503.317 551.092 517.472C547.757 522.312 544.29 527.062 540.883 531.853Z" fill="#914413" fill-rule="nonzero" opacity="1" stroke="none" vectornator:layerName="path"/>
<path d="M528.781 406.774C530.405 410.727 531.871 414.395 533.17 418.122C542.547 445.034 537.534 469.928 521.469 492.63C507.3 512.653 487.78 525.907 464.235 532.608C446.516 537.651 428.543 537.526 410.234 531.852C408.704 530.838 407.705 530.113 406.707 529.389C406.707 529.389 406.676 529.312 406.648 528.942C405.982 527.502 405.343 526.433 404.705 525.364C404.705 525.364 404.632 525.254 404.7 524.898C404.41 524.122 404.051 523.702 403.692 523.281C403.604 523.119 403.515 522.958 403.446 522.325C403.416 521.446 403.185 521.259 402.775 521.294C402.775 521.294 402.727 521.224 402.788 520.907C402.467 519.982 402.086 519.375 401.705 518.767C401.533 518.385 401.362 518.003 401.262 517.103C401.219 515.563 401.106 514.541 401.028 513.123C402.4 512.431 403.848 511.643 405.059 511.914C417.165 514.618 429.417 515.459 441.569 513.168C473.098 507.225 495.383 489.382 508.036 459.822C513.659 446.686 514.615 432.982 510.035 419.507C507.992 413.499 503.529 408.314 500.141 402.416C500.043 401.156 499.969 400.235 499.894 399.315C509.978 399.59 519.577 401.8 528.781 406.774Z" fill="#df6a20" fill-rule="nonzero" opacity="1" stroke="none" vectornator:layerName="path"/>
<path d="M500.164 402.756C503.529 408.314 507.992 413.499 510.035 419.507C514.615 432.982 513.659 446.686 508.036 459.822C495.383 489.382 473.098 507.225 441.569 513.168C429.417 515.459 417.165 514.618 405.059 511.914C403.848 511.643 402.4 512.431 400.776 512.994C400.317 513.185 400.146 513.11 399.974 513.035C399.053 508.621 398.132 504.208 397.512 499.346C398.109 498.253 398.404 497.606 398.777 496.688C398.896 496.232 398.939 496.049 399.416 495.91C417.876 498.228 435.637 498.307 452.256 489.402C474.878 477.279 489.732 459.771 491.544 432.912C491.767 427.635 491.689 422.46 491.376 417.3C491.347 416.824 489.816 416.44 488.842 415.704C488.42 414.327 487.139 413.259 486.899 411.764C487.141 405.119 490.132 403.199 495.762 403.869C495.614 405.413 495.467 406.958 495.31 408.6C499.565 408.442 500.139 405.811 500.164 402.756Z" fill="#fc9e5c" fill-rule="nonzero" opacity="1" stroke="none" vectornator:layerName="path"/>
<path d="M398.128 477.958C401.876 449.425 416.494 428.039 440.828 413.055C442.236 412.187 443.758 411.504 445.75 410.975C452.473 413.182 458.675 415.149 464.885 417.095C464.895 417.074 464.902 417.098 464.913 417.465C465.312 418.915 465.462 420.179 466.126 421.05C471.766 428.443 471.462 436.446 468.231 444.487C466.223 449.485 463.425 454.166 460.763 459.099C460.276 459.413 460.094 459.677 459.696 460.137C456.189 463.473 452.987 466.673 449.591 469.977C449.157 470.264 448.987 470.498 448.526 470.843C446.042 472.228 443.919 473.554 441.594 474.885C441.392 474.892 440.998 474.98 440.642 475.014C438.753 475.965 437.22 476.882 435.351 477.809C434.346 477.889 433.677 477.958 432.609 478.018C429.817 478.711 427.425 479.413 424.657 480.099C423.534 480.148 422.786 480.215 421.627 480.262C413.304 481.662 405.601 480.973 398.128 477.958Z" fill="#fcfdfb" fill-rule="nonzero" opacity="1" stroke="none" vectornator:layerName="path"/>
<path d="M541.245 531.879C544.29 527.062 547.757 522.312 551.092 517.472C560.847 503.317 566.716 487.881 568.257 470.555C569.138 460.649 568.224 451.166 566.248 441.212C569.305 446.409 573.119 451.734 575.128 457.67C579.957 471.944 580.685 486.712 578.695 501.687C577.988 507 574.521 509.847 570.776 512.439C561.167 519.091 551.345 525.437 541.245 531.879Z" fill="#522b10" fill-rule="nonzero" opacity="1" stroke="none" vectornator:layerName="path"/>
<path d="M464.876 421.115C455.227 410.975 450.473 413.182 444.092 410.838C453.508 404.474 466.113 401.434 477.511 400.026C477.571 400.54 477.305 400.786 476.667 401.024C473.981 401.495 472.696 403.512 471.134 404.613C465.187 408.804 463.787 414.167 464.876 421.115Z" fill="#f0d1b6" fill-rule="nonzero" opacity="1" stroke="none" vectornator:layerName="path"/>
<path d="M477.039 401.033C477.305 400.786 477.571 400.54 477.942 400.036C485.067 399.545 492.086 399.311 499.499 399.196C499.969 400.235 500.043 401.156 500.141 402.416C500.139 405.811 499.565 408.442 495.31 408.6C495.467 406.958 495.614 405.413 495.762 403.869C490.132 403.199 488.141 405.119 487.572 411.672C483.816 408.348 480.427 404.691 477.039 401.033Z" fill="#f1a36d" fill-rule="nonzero" opacity="1" stroke="none" vectornator:layerName="path"/>
<path d="M398.009 478.369C405.601 480.973 413.304 481.662 421.498 480.62C416.31 481.209 410.731 482.17 405.401 481.404C400.566 480.71 399.387 482.772 399.072 486.478C398.807 489.588 398.994 492.735 398.982 495.866C398.939 496.049 398.896 496.232 398.541 496.688C397.909 496.961 397.588 496.948 397.269 496.923C397.475 490.875 397.682 484.828 398.009 478.369Z" fill="#f0d1b6" fill-rule="nonzero" opacity="1" stroke="none" vectornator:layerName="path"/>
<path d="M385.017 539.962C380.08 537.024 378.162 532.722 379.075 526.141C381.327 531.074 383.205 535.188 385.035 539.652C384.987 540.003 385.017 539.962 385.017 539.962Z" fill="#93bac7" fill-rule="nonzero" opacity="1" stroke="none" vectornator:layerName="path"/>
<path d="M409.886 534.489C412.214 536.958 414.569 539.78 416.853 543.001C414.493 540.547 412.203 537.694 409.886 534.489Z" fill="#7b4932" fill-rule="nonzero" opacity="1" stroke="none" vectornator:layerName="path"/>
<path d="M406.732 529.716C407.705 530.113 408.704 530.838 409.846 531.856C409.981 532.582 409.973 533.015 409.918 533.771C408.834 532.744 407.796 531.394 406.732 529.716Z" fill="#7b4932" fill-rule="nonzero" opacity="1" stroke="none" vectornator:layerName="path"/>
<path d="M404.718 525.697C405.343 526.433 405.982 527.502 406.619 528.912C405.989 528.179 405.36 527.104 404.718 525.697Z" fill="#7b4932" fill-rule="nonzero" opacity="1" stroke="none" vectornator:layerName="path"/>
<path d="M399.914 513.393C400.146 513.11 400.317 513.185 400.741 513.39C401.106 514.541 401.219 515.563 401.184 516.798C400.642 515.924 400.248 514.837 399.914 513.393Z" fill="#7b4932" fill-rule="nonzero" opacity="1" stroke="none" vectornator:layerName="path"/>
<path d="M397.184 497.264C397.588 496.948 397.909 496.961 398.465 496.96C398.404 497.606 398.109 498.253 397.512 498.95C397.174 498.536 397.137 498.071 397.184 497.264Z" fill="#fdcba1" fill-rule="nonzero" opacity="1" stroke="none" vectornator:layerName="path"/>
<path d="M401.611 519.035C402.086 519.375 402.467 519.982 402.767 520.87C402.296 520.534 401.907 519.919 401.611 519.035Z" fill="#7b4932" fill-rule="nonzero" opacity="1" stroke="none" vectornator:layerName="path"/>
<path d="M403.706 523.552C404.051 523.702 404.41 524.122 404.675 524.838C404.293 524.696 404.006 524.26 403.706 523.552Z" fill="#7b4932" fill-rule="nonzero" opacity="1" stroke="none" vectornator:layerName="path"/>
<path d="M402.786 521.482C403.185 521.259 403.416 521.446 403.34 522.069C403 522.13 402.861 521.926 402.786 521.482Z" fill="#7b4932" fill-rule="nonzero" opacity="1" stroke="none" vectornator:layerName="path"/>
<path d="M384.967 540.019C385.091 540.164 385.236 540.293 385.38 540.422C385.289 540.37 385.198 540.318 385.063 540.114C385.017 539.962 384.987 540.003 384.967 540.019Z" fill="#93bac7" fill-rule="nonzero" opacity="1" stroke="none" vectornator:layerName="path"/>
<path d="M691.995 483.657C691.39 483.457 690.781 482.915 690.171 482.372C690.452 482.076 690.734 481.779 691.015 481.482C691.34 482.093 691.665 482.704 691.995 483.657Z" fill="#96c3d2" fill-rule="nonzero" opacity="1" stroke="none" vectornator:layerName="path"/>
<path d="M399.416 495.91C398.994 492.735 398.807 489.588 399.072 486.478C399.387 482.772 400.566 480.71 405.401 481.404C410.731 482.17 416.31 481.209 421.909 480.641C422.786 480.215 423.534 480.148 424.922 480.355C428.503 481.076 431.581 481.915 433.008 478.028C433.677 477.958 434.346 477.889 435.747 477.87C437.985 476.941 439.492 475.96 440.998 474.98C440.998 474.98 441.392 474.892 441.983 474.897C444.678 473.529 446.783 472.156 448.887 470.783C448.987 470.498 449.157 470.264 449.98 470.016C455.624 468.452 458.946 465.302 460 460.001C460.094 459.677 460.276 459.413 461.113 459.072C470.136 453.109 471.266 443.788 472.816 434.838C473.329 431.88 469.847 427.763 469.452 424.671C468.902 420.373 469.179 418.313 464.902 417.098C464.902 417.098 461.895 417.074 461.885 417.095C460.787 410.167 465.187 408.804 471.134 404.613C472.696 403.512 473.981 401.495 476.667 401.024C480.427 404.691 483.816 408.348 487.531 412.098C488.139 413.259 488.42 414.327 488.842 416.12C489.715 422.237 490.447 427.628 491.178 433.019C489.732 459.771 474.878 477.279 452.256 489.402C435.637 498.307 417.876 498.228 399.416 495.91Z" fill="#fdcba1" fill-rule="nonzero" opacity="1" stroke="none" vectornator:layerName="path"/>
<path d="M491.544 432.912C490.447 427.628 489.715 422.237 488.983 416.43C489.816 416.44 491.347 416.824 491.376 417.3C491.689 422.46 491.767 427.635 491.544 432.912Z" fill="#f1a36d" fill-rule="nonzero" opacity="1" stroke="none" vectornator:layerName="path"/>
<path d="M463.913 416.465C468.179 417.313 471.427 421.26 471.976 425.558C472.371 428.65 473.329 431.88 472.816 434.838C471.266 443.788 470.136 453.109 461.331 458.962C463.425 454.166 466.223 449.485 468.231 444.487C471.462 436.446 464.312 417.915 463.913 416.465Z" fill="#f0d1b6" fill-rule="nonzero" opacity="1" stroke="none" vectornator:layerName="path"/>
<path d="M459.696 460.137C458.946 465.302 455.624 468.452 450.173 469.913C452.987 466.673 456.189 463.473 459.696 460.137Z" fill="#f0d1b6" fill-rule="nonzero" opacity="1" stroke="none" vectornator:layerName="path"/>
<path d="M432.609 478.018C431.581 481.915 428.503 481.076 425.298 480.372C427.425 479.413 429.817 478.711 432.609 478.018Z" fill="#f0d1b6" fill-rule="nonzero" opacity="1" stroke="none" vectornator:layerName="path"/>
<path d="M448.526 470.843C446.783 472.156 444.678 473.529 442.185 474.89C443.919 473.554 446.042 472.228 448.526 470.843Z" fill="#f0d1b6" fill-rule="nonzero" opacity="1" stroke="none" vectornator:layerName="path"/>
<path d="M440.642 475.014C439.492 475.96 437.985 476.941 436.083 477.86C437.22 476.882 438.753 475.965 440.642 475.014Z" fill="#f0d1b6" fill-rule="nonzero" opacity="1" stroke="none" vectornator:layerName="path"/>
<g fill="#ffffff" opacity="1" stroke="none" vectornator:layerName="Curve 1">
<path d="M236.529 769.187L300.724 703.6L319.852 716.87L307.243 766.834L349.529 737.458L368.657 750.728L329.703 833.825L310.477 820.487L333.754 773.25L286.518 803.866L278.827 798.531L291.85 744.18L255.756 782.525L236.529 769.187Z"/>
<path d="M438.708 807.768C435.466 799.819 430.023 794.666 422.379 792.308C419.015 791.271 415.711 790.921 412.467 791.26C409.223 791.599 406.245 792.502 403.533 793.967C400.82 795.433 398.423 797.435 396.342 799.975C394.262 802.514 392.702 805.466 391.665 808.829C390.604 812.269 390.218 815.625 390.506 818.895C390.795 822.166 391.661 825.195 393.103 827.984C394.545 830.773 396.492 833.215 398.943 835.311C401.394 837.407 404.263 838.961 407.55 839.975C414.736 842.192 422.139 841.126 429.759 836.779L421.553 863.382L419.012 863.478C415.195 863.64 411.707 863.548 408.549 863.201C405.391 862.855 402.359 862.234 399.454 861.338C393.491 859.499 388.125 856.609 383.354 852.667C378.584 848.726 374.747 844.068 371.842 838.693C368.937 833.318 367.09 827.432 366.3 821.036C365.511 814.639 366.142 808.115 368.193 801.464C370.244 794.813 373.367 789.1 377.561 784.324C381.755 779.548 386.554 775.796 391.959 773.067C397.363 770.339 403.165 768.696 409.365 768.139C415.564 767.581 421.684 768.234 427.723 770.097C431.163 771.158 434.434 772.564 437.535 774.316C440.637 776.068 443.786 778.275 446.984 780.935L438.708 807.768Z"/>
<path d="M508.23 804.971L479.986 802.907L478.884 817.987L504.615 819.867L503.163 839.734L477.432 837.854L474.843 873.279L451.385 871.565L457.98 781.325L509.682 785.104L508.23 804.971Z"/>
<path d="M545.228 829.743C545.902 833.279 547.193 836.413 549.099 839.144C551.004 841.875 553.307 844.124 556.006 845.889C558.704 847.654 561.683 848.857 564.941 849.498C568.198 850.138 571.517 850.136 574.896 849.491C578.275 848.846 581.361 847.626 584.154 845.831C586.947 844.035 589.292 841.816 591.19 839.174C593.089 836.531 594.421 833.589 595.187 830.348C595.953 827.107 595.998 823.718 595.323 820.182C594.648 816.646 593.358 813.512 591.452 810.781C589.546 808.05 587.224 805.805 584.486 804.048C581.748 802.29 578.75 801.091 575.492 800.45C572.234 799.809 568.916 799.812 565.537 800.456C562.158 801.101 559.072 802.322 556.279 804.117C553.486 805.912 551.16 808.128 549.301 810.763C547.442 813.398 546.13 816.336 545.364 819.577C544.598 822.819 544.553 826.207 545.228 829.743ZM521.064 834.355C519.804 827.754 519.848 821.373 521.197 815.211C522.546 809.049 524.976 803.433 528.488 798.365C532 793.297 536.533 788.991 542.087 785.447C547.641 781.903 554.033 779.441 561.263 778.061C568.414 776.696 575.243 776.634 581.751 777.876C588.26 779.118 594.099 781.445 599.27 784.856C604.442 788.267 608.789 792.588 612.312 797.821C615.836 803.053 618.227 808.969 619.487 815.57C620.747 822.171 620.702 828.552 619.354 834.715C618.005 840.877 615.555 846.496 612.004 851.571C608.452 856.647 603.88 860.961 598.287 864.512C592.693 868.064 586.321 870.522 579.17 871.887C571.941 873.267 565.092 873.332 558.623 872.083C552.154 870.833 546.353 868.499 541.221 865.081C536.09 861.662 531.762 857.337 528.239 852.105C524.715 846.873 522.324 840.956 521.064 834.355Z"/>
<path d="M670.889 766.702C667.662 766.018 664.681 765.816 661.947 766.094C659.212 766.372 656.777 767.058 654.642 768.153C651.937 769.54 650.058 771.312 649.006 773.469C647.955 775.627 647.958 777.738 649.017 779.802C649.746 781.226 650.776 782.182 652.104 782.669C653.433 783.157 654.965 783.383 656.7 783.347C658.435 783.312 660.302 783.096 662.302 782.701C664.301 782.305 666.301 781.954 668.302 781.647C676.304 780.422 682.865 780.902 687.986 783.086C693.106 785.271 697.236 789.424 700.375 795.547C702.491 799.676 703.713 803.769 704.04 807.827C704.367 811.884 703.807 815.79 702.36 819.543C700.913 823.297 698.587 826.826 695.383 830.133C692.178 833.439 688.12 836.351 683.207 838.869C673.027 844.088 662.043 845.898 650.256 844.299L650.577 822.828C655.132 823.999 659.287 824.476 663.042 824.259C666.797 824.043 670.169 823.168 673.159 821.635C676.576 819.883 678.72 817.796 679.59 815.372C680.46 812.948 680.384 810.739 679.362 808.746C678.742 807.536 677.99 806.595 677.106 805.924C676.223 805.253 675.092 804.8 673.712 804.563C672.332 804.326 670.677 804.298 668.746 804.479C666.816 804.659 664.511 804.942 661.832 805.327C658.689 805.859 655.553 806.275 652.426 806.575C649.298 806.875 646.282 806.691 643.377 806.022C640.472 805.354 637.731 804.04 635.153 802.08C632.575 800.12 630.264 797.147 628.22 793.16C626.177 789.174 624.983 785.223 624.639 781.309C624.296 777.394 624.724 773.669 625.922 770.133C627.121 766.596 629.118 763.303 631.914 760.251C634.71 757.2 638.244 754.579 642.515 752.389C646.502 750.346 650.949 748.762 655.857 747.64C660.766 746.517 665.761 746.001 670.842 746.093L670.889 766.702Z"/>
<path d="M721.679 726.829L766.128 781.629L747.862 796.445L703.412 741.646L688.408 753.817L675.859 738.346L724.135 699.188L736.683 714.659L721.679 726.829Z"/>
</g>
<g fill="#ffffff" opacity="0" stroke="none" vectornator:layerName="MCFOST">
<path d="M294.443 748.368L315.563 748.368L336.353 802.928L357.363 748.368L378.263 748.368L378.263 826.248L365.063 826.248L365.063 761.568L364.843 761.568L341.193 826.248L331.513 826.248L307.863 761.568L307.643 761.568L307.643 826.248L294.443 826.248L294.443 748.368Z"/>
<path d="M449.433 766.628C446.573 763.548 443.805 761.495 441.128 760.468C438.451 759.441 435.756 758.928 433.043 758.928C429.01 758.928 425.361 759.643 422.098 761.073C418.835 762.503 416.03 764.483 413.683 767.013C411.336 769.543 409.521 772.495 408.238 775.868C406.955 779.241 406.313 782.871 406.313 786.758C406.313 790.938 406.955 794.788 408.238 798.308C409.521 801.828 411.336 804.871 413.683 807.438C416.03 810.005 418.835 812.021 422.098 813.488C425.361 814.955 429.01 815.688 433.043 815.688C436.196 815.688 439.258 814.936 442.228 813.433C445.198 811.93 447.966 809.528 450.533 806.228L461.973 814.368C458.453 819.208 454.163 822.728 449.103 824.928C444.043 827.128 438.653 828.228 432.933 828.228C426.92 828.228 421.401 827.256 416.378 825.313C411.355 823.37 407.028 820.62 403.398 817.063C399.768 813.506 396.926 809.235 394.873 804.248C392.82 799.261 391.793 793.725 391.793 787.638C391.793 781.405 392.82 775.74 394.873 770.643C396.926 765.546 399.768 761.201 403.398 757.608C407.028 754.015 411.355 751.246 416.378 749.303C421.401 747.36 426.92 746.388 432.933 746.388C438.213 746.388 443.108 747.323 447.618 749.193C452.128 751.063 456.326 754.235 460.213 758.708L449.433 766.628Z"/>
<path d="M471.323 748.368L521.593 748.368L521.593 760.908L485.183 760.908L485.183 781.368L519.503 781.368L519.503 793.908L485.183 793.908L485.183 826.248L471.323 826.248L471.323 748.368Z"/>
<path d="M530.283 787.638C530.283 781.405 531.31 775.74 533.363 770.643C535.416 765.546 538.258 761.201 541.888 757.608C545.518 754.015 549.845 751.246 554.868 749.303C559.891 747.36 565.41 746.388 571.423 746.388C577.51 746.315 583.083 747.213 588.143 749.083C593.203 750.953 597.566 753.685 601.233 757.278C604.9 760.871 607.76 765.198 609.813 770.258C611.866 775.318 612.893 780.965 612.893 787.198C612.893 793.285 611.866 798.821 609.813 803.808C607.76 808.795 604.9 813.085 601.233 816.678C597.566 820.271 593.203 823.076 588.143 825.093C583.083 827.11 577.51 828.155 571.423 828.228C565.41 828.228 559.891 827.256 554.868 825.313C549.845 823.37 545.518 820.62 541.888 817.063C538.258 813.506 535.416 809.235 533.363 804.248C531.31 799.261 530.283 793.725 530.283 787.638ZM544.803 786.758C544.803 790.938 545.445 794.788 546.728 798.308C548.011 801.828 549.826 804.871 552.173 807.438C554.52 810.005 557.325 812.021 560.588 813.488C563.851 814.955 567.5 815.688 571.533 815.688C575.566 815.688 579.233 814.955 582.533 813.488C585.833 812.021 588.656 810.005 591.003 807.438C593.35 804.871 595.165 801.828 596.448 798.308C597.731 794.788 598.373 790.938 598.373 786.758C598.373 782.871 597.731 779.241 596.448 775.868C595.165 772.495 593.35 769.543 591.003 767.013C588.656 764.483 585.833 762.503 582.533 761.073C579.233 759.643 575.566 758.928 571.533 758.928C567.5 758.928 563.851 759.643 560.588 761.073C557.325 762.503 554.52 764.483 552.173 767.013C549.826 769.543 548.011 772.495 546.728 775.868C545.445 779.241 544.803 782.871 544.803 786.758Z"/>
<path d="M664.263 765.088C662.796 762.961 660.835 761.403 658.378 760.413C655.921 759.423 653.336 758.928 650.623 758.928C649.01 758.928 647.451 759.111 645.948 759.478C644.445 759.845 643.088 760.431 641.878 761.238C640.668 762.045 639.696 763.09 638.963 764.373C638.23 765.656 637.863 767.178 637.863 768.938C637.863 771.578 638.78 773.595 640.613 774.988C642.446 776.381 644.72 777.591 647.433 778.618C650.146 779.645 653.116 780.635 656.343 781.588C659.57 782.541 662.54 783.861 665.253 785.548C667.966 787.235 670.24 789.471 672.073 792.258C673.906 795.045 674.823 798.748 674.823 803.368C674.823 807.548 674.053 811.196 672.513 814.313C670.973 817.43 668.901 820.015 666.298 822.068C663.695 824.121 660.67 825.661 657.223 826.688C653.776 827.715 650.146 828.228 646.333 828.228C641.493 828.228 636.836 827.421 632.363 825.808C627.89 824.195 624.04 821.481 620.813 817.668L631.263 807.548C632.95 810.115 635.168 812.113 637.918 813.543C640.668 814.973 643.583 815.688 646.663 815.688C648.276 815.688 649.89 815.468 651.503 815.028C653.116 814.588 654.583 813.928 655.903 813.048C657.223 812.168 658.286 811.05 659.093 809.693C659.9 808.336 660.303 806.778 660.303 805.018C660.303 802.158 659.386 799.958 657.553 798.418C655.72 796.878 653.446 795.576 650.733 794.513C648.02 793.45 645.05 792.441 641.823 791.488C638.596 790.535 635.626 789.233 632.913 787.583C630.2 785.933 627.926 783.733 626.093 780.983C624.26 778.233 623.343 774.548 623.343 769.928C623.343 765.895 624.168 762.411 625.818 759.478C627.468 756.545 629.631 754.106 632.308 752.163C634.985 750.22 638.046 748.771 641.493 747.818C644.94 746.865 648.46 746.388 652.053 746.388C656.16 746.388 660.138 747.011 663.988 748.258C667.838 749.505 671.303 751.558 674.383 754.418L664.263 765.088Z"/>
<path d="M705.183 760.908L681.313 760.908L681.313 748.368L742.913 748.368L742.913 760.908L719.043 760.908L719.043 826.248L705.183 826.248L705.183 760.908Z"/>
</g>
</g>
</svg>
